<?xml version="1.0" encoding="UTF-8" standalone="no"?>
<svg
        xml:space="preserve"
        width="2048"
        height="2048"
        preserveAspectRatio="xMidYMid"
        version="1.0"
        id="svg7"
        xmlns="http://www.w3.org/2000/svg"
><defs
   id="defs7" />
    <path
            d="m 817.26784,520 c -13.38378,30.57004 -15.56197,69.97619 -12.07474,113.84838 -31.58624,28.03795 -46.14322,61.89085 -40.01862,102.80666 l 61.67839,239.13162 4.6274,16.69218 c 9.03612,-2.76012 20.94576,-4.70653 34.90772,-3.02865 L 803.30151,751.16591 c -13.75324,-53.69584 6.43862,-81.48644 41.95942,-97.578 8.67911,-1.01246 17.29467,-1.77445 25.64107,-1.45296 25.03734,0.96511 47.63854,11.68098 62.17932,54.63354 l 71.23168,261.0213 c 3.2803,10.41369 7.4517,29.10275 20.8467,30.3258 13.6541,-0.97009 17.2685,-20.18251 20.846,-30.32517 l 71.2323,-261.02193 c 5.3937,-15.9333 11.8959,-27.4311 19.2211,-35.64043 a 60.436021,60.436021 0 0 1 4.7676,-4.78753 c 11.367,-10.18876 24.4093,-13.67412 38.1906,-14.20558 44.2554,-1.70529 85.2995,29.92892 67.5999,99.03096 l -59.5825,221.10737 c 1.9253,-1.9377 3.9022,-3.80062 5.9358,-5.58068 12.0848,-9.32646 24.395,-15.64296 36.9969,-19.11897 l 3.4504,-13.49592 -0.047,0.0106 47.8553,-177.76913 c 8.5483,-31.41053 8.8848,-77.96932 -37.6036,-122.12749 -0.3894,-34.71083 7.2772,-62.27651 -11.729,-113.50258 -40.2267,40.4859 -43.4099,64.70891 -59.3394,94.52816 -30.4261,7.12211 -63.3806,20.43361 -84.5232,66.56312 l -62.7865,233.5796 -62.44413,-227.00268 C 943.21651,632.65088 896.20351,618.92941 875.5724,615.56244 863.31573,579.6273 846.05283,546.53765 817.26846,520"
            style="fill:#ffffff"
            id="path1"/>
    <path
            d="m 831.48027,992.47884 c -4.77444,1.45919 -8.74764,3.14579 -11.79748,4.64548 -30.1015,17.88038 -59.49708,37.17128 -87.97304,58.30268 -36.66286,28.4411 -36.92205,56.5937 -33.11894,60.0286 0.80872,0.4523 1.65732,0.8249 3.10467,0 l 124.19851,-84.5232 c 73.01107,-31.86665 124.20412,54.9643 68.65283,107.2932 l -80.72882,57.6136 c -18.40495,17.9663 -3.48099,35.952 17.0685,26.7495 l 82.97866,-58.8336 c 19.27348,-16.9027 32.86162,-35.9849 36.56878,-57.2696 2.48971,-12.1121 1.8785,-22.6729 1.72585,-33.4641 0.13396,-1.5957 0.0573,-3.2816 2.41557,-5.5203 17.25667,-13.2137 36.40741,-21.4498 55.52204,-31.8765 -28.28284,-23.4075 -56.48777,-27.4505 -92.09081,-24.3564 -18.92458,-13.91896 -36.47968,-19.9987 -51.6186,-21.81801 -13.96259,-1.67788 -25.8716,0.26791 -34.90772,3.02865"
            style="fill:#ffffff"
            id="path2"/>
    <path
            d="m 1025.1179,1169.4368 c -29.30648,-0.1695 -46.63729,10.5034 -65.71389,58.4123 -26.78499,70.4497 -91.26026,52.5064 -100.73687,117.2982 -1.77757,35.0841 15.8928,51.2386 38.29463,62.7881 42.30085,15.8354 80.71635,-25.8087 129.00723,-23.9315 50.712,1.9066 85.4329,39.7296 126.3312,24.4187 22.4025,-11.5489 40.071,-27.7034 38.2928,-62.7874 -9.4766,-64.7918 -73.9513,-46.8485 -100.7363,-117.2982 -17.5675,-48.78 -35.565,-58.7314 -64.7388,-58.9002"
            style="fill:#0ec6a4"
            id="path3"/>
    <path
            d="m 1233.8184,934.07771 -3.4504,13.49592 c 22.466,-6.19625 45.8647,-3.36572 70.5836,7.53208 23.1745,11.38066 78.5226,53.09649 51.7158,134.65639 -17.5451,36.5476 -33.765,78.5656 -53.6684,105.3861 -20.2168,26.8 -41.2685,34.3844 -62.4485,39.0311 -37.3631,6.5826 -67.2833,-4.2043 -91.9686,-27.1999 -26.0118,-28.5408 -35.5184,-60.7102 -29.028,-96.7251 8.6971,-29.8697 28.8784,-66.3027 43.6647,-99.6515 8.3289,-14.34266 17.466,-27.50898 28.2161,-38.32952 l 59.5825,-221.10737 c 17.6996,-69.10267 -23.3445,-100.73563 -67.5999,-99.03096 -25.038,0.96511 -47.6385,11.68098 -62.1793,54.63354 l -71.2323,261.0213 c -3.5775,10.14329 -7.1919,29.35571 -20.846,30.3258 -13.395,-1.22305 -17.5664,-19.91211 -20.8467,-30.32517 L 933.08132,706.76849 c -14.5414,-42.95319 -37.14198,-53.66843 -62.17932,-54.63354 -44.25599,-1.70529 -85.30014,29.92892 -67.60049,99.03096 l 63.08648,238.2849 c 15.13954,1.81931 32.69402,7.89905 51.6186,21.81799 35.60304,-3.094 63.80797,0.9489 92.09081,24.3564 -19.11463,10.4274 -38.26537,18.6629 -55.52204,31.8766 -2.35825,2.2386 -2.28161,3.9246 -2.41557,5.5202 0.15265,10.7912 0.76386,21.352 -1.72585,33.4641 -3.70716,21.2847 -17.2953,40.3675 -36.56878,57.2697 l -82.97866,58.8335 c -20.54949,9.2025 -35.47282,-8.7832 -17.06912,-26.7495 l 80.72881,-57.6136 c 55.55192,-52.3288 4.35887,-139.15983 -68.6522,-107.2932 l -124.19914,84.5232 c -1.44672,0.8249 -2.29532,0.4523 -3.10404,0 -3.80311,-3.4349 -3.54392,-31.5875 33.11894,-60.0286 28.47596,-21.1314 57.87154,-40.4223 87.97304,-58.30266 3.04984,-1.49968 7.02304,-3.18629 11.79748,-4.64547 l -4.6274,-16.69218 0.076,0.29283 c 0,0 -39.65849,23.7146 -58.83042,36.58938 -18.55572,12.461 -54.32886,39.3083 -54.32886,39.3083 -42.38622,41.8797 -49.08901,98.4391 -28.63359,136.9617 l 95.21913,198.0258 c 12.31773,22.9875 26.5096,44.3351 47.95193,59.3395 22.24606,14.0622 44.87219,26.5563 69.68959,30.0124 l 17.59498,0.6909 h 234.93787 c 50.2859,-2.2598 113.502,-39.5712 132.8222,-100.3929 l 82.7973,-281.1683 c 15.9589,-45.0573 6.3882,-87.5749 -17.8778,-119.33687 -24.2666,-31.76131 -63.2292,-52.7675 -114.4515,-42.0317 z m -208.4575,202.59339 c 95.335,1.9645 83.2821,85.3456 117.6241,110.297 26.4466,22.3015 59.6678,29.4585 76.2428,73.8272 6.4386,27.6554 10.8162,55.813 -16.9034,91.7693 -21.9918,23.1788 -48.6522,40.6056 -98.3238,29.6685 -25.8604,-9.2517 -51.0933,-23.7974 -79.1276,-24.1432 -28.29647,0.8243 -53.53256,14.0897 -79.61351,23.6554 -49.67093,10.937 -76.32945,-6.4897 -98.3213,-29.6691 -27.71958,-35.9557 -23.34451,-64.1133 -16.90527,-91.7687 16.57505,-44.3688 49.79555,-51.5264 76.24285,-73.8273 35.09962,-25.5015 29.08218,-111.6639 119.08513,-109.8091"
            style="fill:#0ec6a4"
            id="path4"/>
    <path
            d="m 1187.4347,972.27328 c -10.7501,10.82054 -19.8878,23.98749 -28.2161,38.32952 -14.7863,33.3488 -34.9676,69.7818 -43.6654,99.6509 -6.4897,36.0149 3.0169,68.1849 29.028,96.7257 24.6866,22.9956 54.6062,33.7818 91.9687,27.1999 21.1806,-4.6467 42.2323,-12.2311 62.4491,-39.0311 19.9034,-26.8205 36.1233,-68.8385 53.6684,-105.3861 26.8068,-81.5599 -28.5413,-123.27573 -51.7158,-134.65639 -24.7189,-10.89718 -48.1182,-13.72833 -70.5836,-7.53208 -12.6025,3.47663 -24.9134,9.79251 -36.9975,19.11897 a 117.13373,117.13373 0 0 0 -5.9358,5.58068 m 70.5824,7.22615 c 21.4455,-0.0511 45.3788,11.09406 58.5476,33.17627 27.6953,50.4547 -12.0174,97.4889 -32.2012,143.4415 -6.5489,13.0959 -13.7401,27.6684 -34.8847,38.5432 -22.3675,11.2498 -44.5575,11.9433 -68.5481,-3.4162 -41.3476,-26.1993 -40.1625,-63.4578 -22.4442,-104.4079 7.3894,-14.4336 15.4548,-31.1121 22.7806,-46.2142 19.1277,-39.4286 26.5751,-47.43547 47.0797,-56.1719 9.1825,-3.91277 20.2641,-4.92834 29.6703,-4.95077"
            style="fill:#ffffff"
            id="path5"/>
    <path
            d="m 1258.0178,979.49943 c -9.4069,0.0224 -20.4885,1.03863 -29.671,4.95077 -20.5046,8.73643 -27.952,16.7433 -47.0797,56.1719 -7.3258,15.1027 -15.3918,31.7806 -22.7806,46.2142 -17.7183,40.9501 -18.9034,78.2086 22.4442,104.4079 23.9906,15.3595 46.1806,14.666 68.5481,3.4162 21.1446,-10.8748 28.3358,-25.4473 34.8847,-38.5432 20.1838,-45.9526 59.8965,-92.9868 32.2012,-143.4415 -13.1688,-22.08221 -37.1021,-33.22736 -58.5476,-33.17627"
            style="fill:#0ec6a4"
            id="path6"/>
    <path
            d="m 1025.3609,1136.6711 c -90.00295,-1.8548 -83.98551,84.307 -119.08513,109.8091 -26.4473,22.3015 -59.6678,29.4585 -76.24285,73.8273 -6.43924,27.6554 -10.81431,55.813 16.90527,91.7693 21.99185,23.1788 48.65037,40.6055 98.32193,29.6685 26.08094,-9.5657 51.31641,-22.8311 79.61358,-23.6561 28.0336,0.3465 53.2665,14.8922 79.1275,24.1433 49.671,10.9377 76.3314,-6.4891 98.3232,-29.6685 27.7196,-35.9557 23.342,-64.1133 16.9034,-91.7693 -16.575,-44.3675 -49.7962,-51.5251 -76.2428,-73.8266 -34.342,-24.9514 -22.2891,-108.3325 -117.6241,-110.297 m -0.243,32.7663 c 29.1738,0.1682 47.1713,10.1196 64.7388,58.8996 26.785,70.4497 91.2603,52.5064 100.7369,117.2982 1.7776,35.084 -15.8909,51.2385 -38.2928,62.7874 -40.8989,15.3109 -75.6198,-22.5121 -126.3312,-24.4187 -48.2921,-1.8772 -86.70698,39.7669 -129.00783,23.9315 -22.40183,-11.5495 -40.0722,-27.704 -38.29463,-62.7881 9.47661,-64.7911 73.95188,-46.8485 100.73687,-117.2982 19.0766,-47.9089 36.40741,-58.5818 65.71389,-58.4123"
            style="fill:#ffffff"
            id="path7"/>
</svg>
